<?xml version="1.0" standalone="no"?>
<!DOCTYPE svg PUBLIC "-//W3C//DTD SVG 20010904//EN"
 "http://www.w3.org/TR/2001/REC-SVG-20010904/DTD/svg10.dtd">
<svg version="1.0" xmlns="http://www.w3.org/2000/svg"
 width="111.000000pt" height="111.000000pt" viewBox="0 0 111.000000 111.000000"
 preserveAspectRatio="xMidYMid meet">
<metadata>
Created by potrace 1.11, written by Peter Selinger 2001-2013
</metadata>
<g transform="translate(0.000000,111.000000) scale(0.100000,-0.100000)"
fill="#000000" stroke="none">
<path d="M18 1068 c23 -38 412 -711 450 -778 13 -25 43 -76 66 -115 23 -38 48
-82 55 -98 8 -15 17 -27 21 -27 5 0 104 167 230 388 8 15 52 90 96 167 45 77
91 156 101 175 11 19 30 52 43 73 l22 37 -99 1 c-54 0 -162 0 -241 -1 l-143
-1 27 48 c15 26 38 64 49 83 12 19 27 45 34 58 l12 22 -371 0 -372 0 20 -32z"/>
</g>
</svg>
